<?xml version="1.0" encoding="utf-8"?>
<svg version="1.1" xmlns:xlink="http://www.w3.org/1999/xlink" width="15px" height="12px" xmlns="http://www.w3.org/2000/svg">
  <g transform="matrix(1 0 0 1 -314 -557 )">
    <path d="M 14.7290322580645 1.6565656565657  C 14.9096774193549 1.8451178451179  15 2.07407407407402  15 2.3434343434343  C 15 2.61279461279457  14.9096774193549 2.84175084175081  14.7290322580645 3.030303030303  L 7.72258064516132 10.3434343434343  L 6.40645161290325 11.7171717171717  C 6.22580645161293 11.9057239057239  6.00645161290322 12  5.7483870967742 12  C 5.49032258064517 12  5.27096774193546 11.9057239057239  5.09032258064514 11.7171717171717  L 3.77419354838707 10.3434343434343  L 0.270967741935465 6.68686868686871  C 0.090322580645136 6.49831649831651  0 6.26936026936028  0 6  C 0 5.73063973063972  0.090322580645136 5.50168350168349  0.270967741935465 5.31313131313129  L 1.58709677419353 3.93939393939399  C 1.76774193548385 3.7508417508418  1.98709677419356 3.6565656565657  2.24516129032259 3.6565656565657  C 2.50322580645161 3.6565656565657  2.72258064516132 3.7508417508418  2.90322580645159 3.93939393939399  L 5.7483870967742 6.91919191919192  L 12.0967741935484 0.282828282828291  C 12.2774193548387 0.094276094276097  12.4967741935484 0  12.7548387096774 0  C 13.0129032258064 0  13.2322580645161 0.094276094276097  13.4129032258065 0.282828282828291  L 14.7290322580645 1.6565656565657  Z " fill-rule="nonzero" fill="#6699ff" stroke="none" transform="matrix(1 0 0 1 314 557 )" />
  </g>
</svg>