<?xml version="1.0" encoding="utf-8"?>
<svg version="1.1" xmlns:xlink="http://www.w3.org/1999/xlink" width="95px" height="95px" xmlns="http://www.w3.org/2000/svg">
  <g transform="matrix(1 0 0 1 -608 -681 )">
    <path d="M 608 681  L 703 681  L 703 776  L 608 776  L 608 681  " fill-rule="nonzero" fill="#cccccc" stroke="none" />
    <path d="M 615 688  L 696 688  L 696 769  L 615 769  L 615 688  " fill-rule="nonzero" fill="#ffffff" stroke="none" />
    <path d="M 664.525 709.5  C 660.535 709.5  657.4 706.365  657.4 702.375  C 657.4 698.385  660.535 695.25  664.525 695.25  C 668.515 695.25  671.65 698.385  671.65 702.375  C 671.65 706.365  668.515 709.5  664.525 709.5  " fill-rule="nonzero" fill="#cccccc" stroke="none" />
    <path d="M 618 767  L 618 725.2  L 637 706.2  L 663.6 721.4  L 678.8 717.6  L 694 721.4  L 694 767  L 618 767  " fill-rule="nonzero" fill="#169bd5" stroke="none" />
  </g>
</svg>