<?xml version="1.0" encoding="utf-8"?>
<svg version="1.1" xmlns:xlink="http://www.w3.org/1999/xlink" width="15px" height="13px" xmlns="http://www.w3.org/2000/svg">
  <g transform="matrix(1 0 0 1 -298 -604 )">
    <path d="M 14.7290322580645 1.79461279461285  C 14.9096774193549 1.99887766554439  15 2.24691358024685  15 2.53872053872049  C 15 2.83052749719412  14.9096774193549 3.07856341189671  14.7290322580645 3.28282828282825  L 7.72258064516132 11.2053872053872  L 6.40645161290325 12.6936026936027  C 6.22580645161293 12.8978675645342  6.00645161290322 13  5.7483870967742 13  C 5.49032258064517 13  5.27096774193546 12.8978675645342  5.09032258064514 12.6936026936027  L 3.77419354838707 11.2053872053872  L 0.270967741935465 7.24410774410777  C 0.090322580645136 7.03984287317622  0 6.79180695847363  0 6.5  C 0 6.20819304152637  0.090322580645136 5.96015712682378  0.270967741935465 5.75589225589223  L 1.58709677419353 4.26767676767683  C 1.76774193548385 4.06341189674528  1.98709677419356 3.96127946127951  2.24516129032259 3.96127946127951  C 2.50322580645161 3.96127946127951  2.72258064516132 4.06341189674528  2.90322580645159 4.26767676767683  L 5.7483870967742 7.49579124579124  L 12.0967741935484 0.306397306397315  C 12.2774193548387 0.102132435465772  12.4967741935484 0  12.7548387096774 0  C 13.0129032258064 0  13.2322580645161 0.102132435465772  13.4129032258065 0.306397306397315  L 14.7290322580645 1.79461279461285  Z " fill-rule="nonzero" fill="#6699ff" stroke="none" transform="matrix(1 0 0 1 298 604 )" />
  </g>
</svg>