<?xml version="1.0" encoding="utf-8"?>
<svg version="1.1" xmlns:xlink="http://www.w3.org/1999/xlink" width="355px" height="31px" xmlns="http://www.w3.org/2000/svg">
  <defs>
    <mask fill="white" id="clip27">
      <path d="M 0 29  L 0 2  C 0 0.879999999999995  0.879999999999995 0  2 0  L 88.7999999999993 0  L 93.6000000000022 0  L 95.2000000000007 0  L 353 0  C 354.12 0  355 0.879999999999995  355 2  L 355 29  C 355 30.12  354.12 31  353 31  L 2 31  C 0.879999999999995 31  0 30.12  0 29  Z " fill-rule="evenodd" />
    </mask>
  </defs>
  <g transform="matrix(1 0 0 1 -450 -690 )">
    <path d="M 0 29  L 0 2  C 0 0.879999999999995  0.879999999999995 0  2 0  L 88.7999999999993 0  L 93.6000000000022 0  L 95.2000000000007 0  L 353 0  C 354.12 0  355 0.879999999999995  355 2  L 355 29  C 355 30.12  354.12 31  353 31  L 2 31  C 0.879999999999995 31  0 30.12  0 29  Z " fill-rule="nonzero" fill="#ffffff" stroke="none" transform="matrix(1 0 0 1 450 690 )" />
    <path d="M 0 29  L 0 2  C 0 0.879999999999995  0.879999999999995 0  2 0  L 88.7999999999993 0  L 93.6000000000022 0  L 95.2000000000007 0  L 353 0  C 354.12 0  355 0.879999999999995  355 2  L 355 29  C 355 30.12  354.12 31  353 31  L 2 31  C 0.879999999999995 31  0 30.12  0 29  Z " stroke-width="2" stroke="#e4e4e4" fill="none" transform="matrix(1 0 0 1 450 690 )" mask="url(#clip27)" />
  </g>
</svg>