<?xml version="1.0" encoding="utf-8"?>
<svg version="1.1" xmlns:xlink="http://www.w3.org/1999/xlink" width="328px" height="33px" xmlns="http://www.w3.org/2000/svg">
  <defs>
    <mask fill="white" id="clip25">
      <path d="M 0 31  L 0 2  C 0 0.879999999999995  0.879999999999996 0  2 0  L 326 0  C 327.12 0  328 0.879999999999995  328 2  L 328 31  C 328 32.12  327.12 33  326 33  L 96 33  L 2 33  C 0.879999999999996 33  0 32.12  0 31  Z " fill-rule="evenodd" />
    </mask>
  </defs>
  <g transform="matrix(1 0 0 1 -395 -416 )">
    <path d="M 0 31  L 0 2  C 0 0.879999999999995  0.879999999999996 0  2 0  L 326 0  C 327.12 0  328 0.879999999999995  328 2  L 328 31  C 328 32.12  327.12 33  326 33  L 96 33  L 2 33  C 0.879999999999996 33  0 32.12  0 31  Z " fill-rule="nonzero" fill="#ffffff" stroke="none" transform="matrix(1 0 0 1 395 416 )" />
    <path d="M 0 31  L 0 2  C 0 0.879999999999995  0.879999999999996 0  2 0  L 326 0  C 327.12 0  328 0.879999999999995  328 2  L 328 31  C 328 32.12  327.12 33  326 33  L 96 33  L 2 33  C 0.879999999999996 33  0 32.12  0 31  Z " stroke-width="2" stroke="#e4e4e4" fill="none" transform="matrix(1 0 0 1 395 416 )" mask="url(#clip25)" />
  </g>
</svg>