<?xml version="1.0" encoding="utf-8"?>
<svg version="1.1" xmlns:xlink="http://www.w3.org/1999/xlink" width="12px" height="9px" xmlns="http://www.w3.org/2000/svg">
  <g transform="matrix(1 0 0 1 -277 -469 )">
    <path d="M 11.7832258064516 1.24242424242428  C 11.9277419354839 1.38383838383842  12 1.55555555555551  12 1.75757575757572  C 12 1.95959595959593  11.9277419354839 2.13131313131311  11.7832258064516 2.27272727272725  L 6.17806451612905 7.75757575757572  L 5.1251612903226 8.78787878787878  C 4.98064516129034 8.92929292929293  4.80516129032258 9  4.59870967741936 9  C 4.39225806451614 9  4.21677419354837 8.92929292929293  4.07225806451611 8.78787878787878  L 3.01935483870966 7.75757575757572  L 0.216774193548372 5.01515151515153  C 0.0722580645161088 4.87373737373738  0 4.70202020202021  0 4.5  C 0 4.29797979797979  0.0722580645161088 4.12626262626262  0.216774193548372 3.98484848484847  L 1.26967741935482 2.9545454545455  C 1.41419354838708 2.81313131313135  1.58967741935485 2.74242424242428  1.79612903225807 2.74242424242428  C 2.00258064516129 2.74242424242428  2.17806451612905 2.81313131313135  2.32258064516127 2.9545454545455  L 4.59870967741936 5.18939393939394  L 9.67741935483873 0.212121212121218  C 9.82193548387095 0.0707070707070727  9.99741935483871 0  10.2038709677419 0  C 10.4103225806452 0  10.5858064516129 0.0707070707070727  10.7303225806452 0.212121212121218  L 11.7832258064516 1.24242424242428  Z " fill-rule="nonzero" fill="#6699ff" stroke="none" transform="matrix(1 0 0 1 277 469 )" />
  </g>
</svg>