<?xml version="1.0" encoding="utf-8"?>
<svg version="1.1" xmlns:xlink="http://www.w3.org/1999/xlink" width="9px" height="13px" xmlns="http://www.w3.org/2000/svg">
  <g transform="matrix(1 0 0 1 -18 -124 )">
    <path d="M 8 11.7713152676801  L 8 1.09980171844019  L 1 1.09980171844019  L 1 11.7713152676801  L 3.87421875 8.28288169200265  L 4.5 7.55254461335096  L 5.12578125 8.28288169200265  L 8 11.7713152676801  Z M 0.815625000000001 0  L 8.184375 0  C 8.2921875 0  8.3953125 0.0257766027759396  8.49375 0.077329808327832  C 8.6484375 0.151795549680548  8.771484375 0.269222295659834  8.862890625 0.429610046265704  C 8.954296875 0.589997796871561  9 0.767569949328048  9 0.962326503635166  L 9 12.0376734963648  C 9 12.232430050672  8.954296875 12.4100022031284  8.862890625 12.5703899537343  C 8.771484375 12.7307777043402  8.6484375 12.8482044503195  8.49375 12.9226701916722  C 8.4046875 12.9684952632739  8.3015625 12.9914077990747  8.184375 12.9914077990747  C 7.959375 12.9914077990747  7.76484375 12.8997576558713  7.60078125 12.7164573694646  L 4.5 9.07336417713153  L 1.39921875 12.7164573694646  C 1.23046875 12.9054857898216  1.0359375 13  0.815625000000001 13  C 0.707812499999999 13  0.604687500000001 12.9742233972241  0.506250000000001 12.9226701916722  C 0.3515625 12.8482044503195  0.228515625 12.7307777043402  0.137109375000001 12.5703899537343  C 0.0457031249999993 12.4100022031284  0 12.232430050672  0 12.0376734963648  L 0 0.962326503635166  C 0 0.767569949328048  0.0457031249999993 0.589997796871561  0.137109375000001 0.429610046265704  C 0.228515625 0.269222295659834  0.3515625 0.151795549680548  0.506250000000001 0.077329808327832  C 0.604687500000001 0.0257766027759396  0.707812499999999 0  0.815625000000001 0  Z " fill-rule="nonzero" fill="#145ccd" stroke="none" transform="matrix(1 0 0 1 18 124 )" />
  </g>
</svg>