<?xml version="1.0" encoding="utf-8"?>
<svg version="1.1" xmlns:xlink="http://www.w3.org/1999/xlink" width="12px" height="10px" xmlns="http://www.w3.org/2000/svg">
  <g transform="matrix(1 0 0 1 -304 -192 )">
    <path d="M 11.7832258064516 1.38047138047142  C 11.9277419354839 1.53759820426491  12 1.72839506172835  12 1.95286195286191  C 12 2.17732884399548  11.9277419354839 2.36812570145901  11.7832258064516 2.5252525252525  L 6.17806451612905 8.61952861952858  L 5.1251612903226 9.76430976430976  C 4.98064516129034 9.92143658810325  4.80516129032258 10  4.59870967741936 10  C 4.39225806451614 10  4.21677419354837 9.92143658810325  4.07225806451611 9.76430976430976  L 3.01935483870966 8.61952861952858  L 0.216774193548372 5.57239057239059  C 0.0722580645161088 5.41526374859709  0 5.22446689113356  0 5  C 0 4.77553310886644  0.0722580645161088 4.58473625140291  0.216774193548372 4.42760942760941  L 1.26967741935482 3.28282828282833  C 1.41419354838708 3.12570145903483  1.58967741935485 3.04713804713809  1.79612903225807 3.04713804713809  C 2.00258064516129 3.04713804713809  2.17806451612905 3.12570145903483  2.32258064516127 3.28282828282833  L 4.59870967741936 5.76599326599326  L 9.67741935483873 0.235690235690242  C 9.82193548387095 0.0785634118967475  9.99741935483871 0  10.2038709677419 0  C 10.4103225806452 0  10.5858064516129 0.0785634118967475  10.7303225806452 0.235690235690242  L 11.7832258064516 1.38047138047142  Z " fill-rule="nonzero" fill="#6699ff" stroke="none" transform="matrix(1 0 0 1 304 192 )" />
  </g>
</svg>