<?xml version="1.0" encoding="utf-8"?>
<svg version="1.1" xmlns:xlink="http://www.w3.org/1999/xlink" width="327px" height="33px" xmlns="http://www.w3.org/2000/svg">
  <defs>
    <mask fill="white" id="clip22">
      <path d="M 0 31  L 0 2  C 0 0.879999999999995  0.879999999999995 0  2 0  L 28 0  L 325 0  C 326.12 0  327 0.879999999999995  327 2  L 327 31  C 327 32.12  326.12 33  325 33  L 2 33  C 0.879999999999995 33  0 32.12  0 31  Z " fill-rule="evenodd" />
    </mask>
  </defs>
  <g transform="matrix(1 0 0 1 -394 -367 )">
    <path d="M 0 31  L 0 2  C 0 0.879999999999995  0.879999999999995 0  2 0  L 28 0  L 325 0  C 326.12 0  327 0.879999999999995  327 2  L 327 31  C 327 32.12  326.12 33  325 33  L 2 33  C 0.879999999999995 33  0 32.12  0 31  Z " fill-rule="nonzero" fill="#ffffff" stroke="none" transform="matrix(1 0 0 1 394 367 )" />
    <path d="M 0 31  L 0 2  C 0 0.879999999999995  0.879999999999995 0  2 0  L 28 0  L 325 0  C 326.12 0  327 0.879999999999995  327 2  L 327 31  C 327 32.12  326.12 33  325 33  L 2 33  C 0.879999999999995 33  0 32.12  0 31  Z " stroke-width="2" stroke="#e4e4e4" fill="none" transform="matrix(1 0 0 1 394 367 )" mask="url(#clip22)" />
  </g>
</svg>