<?xml version="1.0" encoding="utf-8"?>
<svg version="1.1" xmlns:xlink="http://www.w3.org/1999/xlink" width="1320px" height="940px" xmlns="http://www.w3.org/2000/svg">
  <defs>
    <mask fill="white" id="clip16">
      <path d="M 0 940  L 0 0  L 1311.25964010283 0  L 1315.20137103685 0  L 1320 0  L 1320 940  L 0 940  Z " fill-rule="evenodd" />
    </mask>
  </defs>
  <g transform="matrix(1 0 0 1 -180 -116 )">
    <path d="M 0 940  L 0 0  L 1311.25964010283 0  L 1315.20137103685 0  L 1320 0  L 1320 940  L 0 940  Z " fill-rule="nonzero" fill="#f1f1f1" stroke="none" transform="matrix(1 0 0 1 180 116 )" />
    <path d="M 0 940  L 0 0  L 1311.25964010283 0  L 1315.20137103685 0  L 1320 0  L 1320 940  L 0 940  Z " stroke-width="2" stroke="#aaaaaa" fill="none" transform="matrix(1 0 0 1 180 116 )" mask="url(#clip16)" />
  </g>
</svg>