<?xml version="1.0" encoding="utf-8"?>
<svg version="1.1" xmlns:xlink="http://www.w3.org/1999/xlink" width="44px" height="7px" xmlns="http://www.w3.org/2000/svg">
  <g transform="matrix(1 0 0 1 -972 -954 )">
    <path d="M 43.7453703703704 3.26788036410923  C 43.9151234567901 3.32856523623754  44 3.39835283918509  44 3.47724317295189  C 44 3.56220199393151  43.9151234567901 3.63502384048548  43.7453703703704 3.69570871261378  L 33.9675925925926 6.91807542262679  C 33.695987654321 7.00303424360642  33.3989197530864 7.02123970524491  33.0763888888889 6.97269180754226  C 32.7538580246914 6.91807542262679  32.5925925925926 6.83008235804075  32.5925925925926 6.70871261378414  L 32.5925925925926 4.66970091027308  L 0.814814814814815 4.66970091027308  C 0.577160493827161 4.66970091027308  0.381944444444444 4.64239271781535  0.229166666666667 4.58777633289987  C 0.0763888888888889 4.5331599479844  0 4.46337234503684  0 4.37841352405722  L 0 2.63068920676203  C 0 2.5457303857824  0.0763888888888889 2.47594278283485  0.229166666666667 2.42132639791938  C 0.381944444444444 2.3667100130039  0.577160493827161 2.33940182054616  0.814814814814815 2.33940182054616  L 32.5925925925926 2.33940182054616  L 32.5925925925926 0.300390117035111  C 32.5925925925926 0.17295188556567  32.7538580246914 0.0849588209796268  33.0763888888889 0.0364109232769833  C 33.3989197530864 -0.0121369744256619  33.695987654321 0.00303424360641469  33.9675925925926 0.0819245773732121  L 43.7453703703704 3.26788036410923  Z " fill-rule="nonzero" fill="#f6bc37" stroke="none" transform="matrix(1 0 0 1 972 954 )" />
  </g>
</svg>