<?xml version="1.0" encoding="utf-8"?>
<svg version="1.1" xmlns:xlink="http://www.w3.org/1999/xlink" width="36px" height="7px" xmlns="http://www.w3.org/2000/svg">
  <g transform="matrix(1 0 0 1 -602 -202 )">
    <path d="M 35.7916666666667 3.26788036410923  C 35.9305555555556 3.32856523623754  36 3.39835283918509  36 3.47724317295189  C 36 3.56220199393151  35.9305555555556 3.63502384048548  35.7916666666667 3.69570871261378  L 27.7916666666667 6.91807542262679  C 27.5694444444444 7.00303424360642  27.3263888888889 7.02123970524491  27.0625 6.97269180754226  C 26.7986111111111 6.91807542262679  26.6666666666667 6.83008235804075  26.6666666666667 6.70871261378414  L 26.6666666666667 4.66970091027308  L 0.666666666666667 4.66970091027308  C 0.472222222222222 4.66970091027308  0.3125 4.64239271781535  0.1875 4.58777633289987  C 0.0625 4.5331599479844  0 4.46337234503684  0 4.37841352405722  L 0 2.63068920676203  C 0 2.5457303857824  0.0625 2.47594278283485  0.1875 2.42132639791938  C 0.3125 2.3667100130039  0.472222222222222 2.33940182054616  0.666666666666667 2.33940182054616  L 26.6666666666667 2.33940182054616  L 26.6666666666667 0.300390117035111  C 26.6666666666667 0.17295188556567  26.7986111111111 0.0849588209796268  27.0625 0.0364109232769833  C 27.3263888888889 -0.0121369744256619  27.5694444444444 0.00303424360641469  27.7916666666667 0.0819245773732121  L 35.7916666666667 3.26788036410923  Z " fill-rule="nonzero" fill="#ff9966" stroke="none" transform="matrix(1 0 0 1 602 202 )" />
  </g>
</svg>